<svg id="Слой_1" data-name="Слой 1" xmlns="http://www.w3.org/2000/svg" viewBox="0 0 1786 1786">
  <defs>
    <style>
      .cls-1 {
        fill: #ba643d;
        stroke: #201600;
        stroke-linecap: round;
        stroke-miterlimit: 10;
      }
    </style>
  </defs>
  <title>1492383538_filter</title>
  <path class="cls-1" d="M7,899.5C7,406.59,406.59,7,899.5,7S1792,406.59,1792,899.5,1392.41,1792,899.5,1792,7,1392.41,7,899.5Zm1284.87-375H500.13q-26,0-36.49,24.12Q453.12,574,472.3,592L777.24,896.91v300.61q0,16.08,11.75,27.83L947.34,1383.7q11.13,11.75,27.83,11.75a43,43,0,0,0,15.46-3.09q24.12-10.52,24.12-36.49v-459L1319.7,592q19.17-17.94,8.66-43.3Q1317.85,524.54,1291.87,524.54Z" transform="translate(-6.5 -6.5)"/>
</svg>
