<svg id="Слой_1" data-name="Слой 1" xmlns="http://www.w3.org/2000/svg" viewBox="0 0 36.67 38.68">
  <defs>
    <style>
      .cls-1 {
        opacity: 0.2;
      }

      .cls-2 {
        fill: #231f20;
      }

      .cls-3 {
        fill: #4f5d73;
      }

      .cls-4 {
        fill: #77b3d4;
      }

      .cls-5 {
        fill: #fff;
      }
    </style>
  </defs>
  <title>Search</title>
  <g id="Layer_1" data-name="Layer 1">
    <g class="cls-1">
      <path class="cls-2" d="M48,52.5a2.49,2.49,0,0,1-1.77-.73l-12-12a2.5,2.5,0,0,1,3.53-3.53l12,12A2.5,2.5,0,0,1,48,52.5Z" transform="translate(-13.83 -13.82)"/>
    </g>
    <path class="cls-3" d="M48,50.5a2.49,2.49,0,0,1-1.77-.73l-12-12a2.5,2.5,0,0,1,3.53-3.53l12,12A2.5,2.5,0,0,1,48,50.5Z" transform="translate(-13.83 -13.82)"/>
    <circle class="cls-4" cx="28.39" cy="28.39" r="10.57" transform="translate(-25.58 14.57) rotate(-45)"/>
    <g class="cls-1">
      <path class="cls-2" d="M28.39,19.82a10.57,10.57,0,1,1-7.47,3.1A10.54,10.54,0,0,1,28.39,19.82Zm0-4a14.57,14.57,0,1,0,10.3,4.27,14.47,14.47,0,0,0-10.3-4.27h0Z" transform="translate(-13.83 -13.82)"/>
    </g>
    <path class="cls-5" d="M28.39,17.82a10.57,10.57,0,1,1-7.47,3.1,10.54,10.54,0,0,1,7.47-3.1m0-4a14.57,14.57,0,1,0,10.3,4.27,14.47,14.47,0,0,0-10.3-4.27h0Z" transform="translate(-13.83 -13.82)"/>
  </g>
</svg>
